<?xml version="1.0" encoding="UTF-8"?>
<svg width="256px" height="256px" version="1.1" viewBox="0 0 256 256" xmlns="http://www.w3.org/2000/svg"><defs><clipPath id="a"><path d="m75.535 174.02h104.79c0.6648 0 1.2 0.5352 1.2 1.2v16.148c0 0.6648-0.5352 1.2-1.2 1.2h-104.79c-0.6648 0-1.2-0.5352-1.2-1.2v-16.148c0-0.6648 0.5352-1.2 1.2-1.2z" fill="#000100" stroke="#000" style="paint-order:stroke markers fill"/></clipPath></defs><rect transform="rotate(45)" x="85.404" y="-95.616" width="191.23" height="191.23" rx="29.8" fill="#ffca1c" style="paint-order:stroke markers fill"/><path d="m90.738 55.182h74.523" fill="none" stroke="#000" stroke-linecap="round" stroke-width="3.9855"/><path d="m128 20.486v32.293" fill="none" stroke="#000" stroke-linecap="round" stroke-width="6.3834"/><g fill-rule="evenodd"><path d="m95.517 55.005c0-9.3839 9.8111-32.114 25.456-32.129v18.782h13.833v-18.782c13.479-0.13258 25.676 22.311 25.677 31.643z" fill="#101010"/><g transform="translate(-4.7718)" stroke="#000" stroke-width="1px"><path d="m102 159.04 25.986-26.826-9.6785-10.96s-17.934 16.898-26.479 25.768c-0.8668 0.89973-2.4259 2.3215-2.512 2.7816 0.0071 5.6764 7.777 9.9194 12.684 9.2366z" fill="#010101" stroke-linejoin="round"/><path d="m133.51 106.8 8.1759 9.0598s3.4092-3.0882 4.8614-6.9827l0.97227-2.6074 3.6681-3.4913 7.2478-1.5026s14.363-5.4801 16.44 17.192c5.7962-5.0307 5.3109-13.373 3.0494-19.578-1.6205-4.4464-12.849-15.15-17.852-18.574-1.363-0.93298-3.7022 0.15824-3.7022 0.15824l-4.0788-2.9744-0.57452-5.1265s-3.7123-4.0659-5.8778-4.1101c-2.1655-0.04419-3.182 0.04419-3.182 0.04419s-8.328 5.3109-9.325 9.6785c-0.27266 1.1945 0.4508 2.4846 1.149 3.4913 1.087 1.5672 4.4636 3.5797 4.4636 3.5797l4.7628-1.0736 3.719 3.3066-0.48261 10.009-5.701 5.6127c-2.6664 0.72184-5.3328 1.9298-7.734 3.8891z" fill="#0e0e0e" stroke-linejoin="round"/><path d="m115.31 93.938 34.188 40.5c10.659-3.2887 22.877 7.5425 13.812 20.25l-5.3438-10.438-7.4688 0.8125-4.1875 4.3125 4.25 9.125c-13.078 1.9329-15.079-12.751-11.375-18.688l-33.375-39.25c-12.397 3.331-24.727-7.4879-17.75-14.562l8.6187 6.7102 6.8264-2.579 2.3049-5.8188-8.0681-6.4217c7.5097-5.642 19.636 2.8211 17.568 16.047z" fill="#0c0c0c"/></g><g transform="translate(.071764)" stroke="#000"><path d="m86.09 210.3h15.866" fill="#250303" stroke-linecap="round" stroke-width="2.9"/><path d="m153.13 210.44h16.484" fill="#250303" stroke-linecap="round" stroke-width="2.9"/><g clip-path="url(#a)" fill="#0d0000"><g stroke-width="3"><path d="m64.262 197.12 44.813-25.879"/><path d="m103.3 197.12 44.813-25.879"/><path d="m142.33 197.12 44.813-25.879"/></g><g stroke-width="12.171"><path d="m155.28 200.69 57.939-33.005"/><path d="m116.25 200.69 57.939-33.005"/><path d="m77.215 200.69 57.939-33.005"/><path d="m38.182 200.69 57.939-33.005"/></g></g><path d="m93.426 210.13v-17.943" fill="#250303" stroke-width="4.6056"/><path d="m161.43 210.13v-17.943" fill="#250303" stroke-width="4.6056"/></g></g></svg>
